<svg xmlns="http://www.w3.org/2000/svg" viewBox="0 0 100 120">
  <!-- Body - tall asymmetric blob, narrow top, wider bottom, curving right -->
  <path d="M45 5 C38 5, 30 12, 28 22 C25 35, 22 48, 22 60 C21 72, 20 82, 22 90 C23 96, 26 102, 30 108 C33 112, 37 115, 42 116 C46 117, 48 114, 50 110 C52 114, 55 116, 58 114 C62 112, 64 106, 65 100 C67 92, 68 82, 67 72 C66 62, 64 52, 60 42 C57 32, 52 18, 48 10 C47 7, 46 5, 45 5 Z" fill="#1a1a1a"/>
  <!-- Three small white dots clustered upper-left -->
  <circle cx="36" cy="38" r="3.5" fill="white"/>
  <circle cx="44" cy="33" r="3" fill="white"/>
  <circle cx="35" cy="50" r="2.2" fill="white"/>
  <!-- Mouth - open oval on right side -->
  <ellipse cx="56" cy="68" rx="6" ry="8" fill="#f0ede6"/>
  <!-- Red dot on top -->
  <circle cx="44" cy="9" r="2.5" fill="#e74c3c"/>
</svg>
